<svg width="292" height="36" viewBox="0 0 292 36" fill="none" xmlns="http://www.w3.org/2000/svg">
<path d="M14.466 28.37C12.4927 28.37 10.655 28.0493 8.953 27.408C7.27567 26.742 5.808 25.817 4.55 24.633C3.31667 23.4243 2.35467 22.006 1.664 20.378C0.973333 18.75 0.628 16.974 0.628 15.05C0.628 13.126 0.973333 11.35 1.664 9.722C2.35467 8.094 3.329 6.688 4.587 5.504C5.845 4.29533 7.31267 3.37033 8.99 2.729C10.6673 2.063 12.505 1.73 14.503 1.73C16.6243 1.73 18.5607 2.1 20.312 2.84C22.0633 3.55533 23.5433 4.62833 24.752 6.059L21.644 8.982C20.7067 7.97067 19.6583 7.21833 18.499 6.725C17.3397 6.207 16.0817 5.948 14.725 5.948C13.3683 5.948 12.1227 6.17 10.988 6.614C9.878 7.058 8.90367 7.687 8.065 8.501C7.251 9.315 6.60967 10.277 6.141 11.387C5.697 12.497 5.475 13.718 5.475 15.05C5.475 16.382 5.697 17.603 6.141 18.713C6.60967 19.823 7.251 20.785 8.065 21.599C8.90367 22.413 9.878 23.042 10.988 23.486C12.1227 23.93 13.3683 24.152 14.725 24.152C16.0817 24.152 17.3397 23.9053 18.499 23.412C19.6583 22.894 20.7067 22.117 21.644 21.081L24.752 24.041C23.5433 25.447 22.0633 26.52 20.312 27.26C18.5607 28 16.612 28.37 14.466 28.37ZM28.9168 28V8.242H33.3198V13.681L32.8018 12.09C33.3938 10.758 34.3188 9.74667 35.5768 9.056C36.8595 8.36533 38.4505 8.02 40.3498 8.02V12.423C40.1525 12.3737 39.9675 12.349 39.7948 12.349C39.6221 12.3243 39.4495 12.312 39.2768 12.312C37.5255 12.312 36.1318 12.83 35.0958 13.866C34.0598 14.8773 33.5418 16.3943 33.5418 18.417V28H28.9168ZM53.3796 28.259C51.1843 28.259 49.2603 27.8273 47.6076 26.964C45.9796 26.076 44.7093 24.8673 43.7966 23.338C42.9086 21.8087 42.4646 20.0697 42.4646 18.121C42.4646 16.1477 42.8963 14.4087 43.7596 12.904C44.6476 11.3747 45.8563 10.1783 47.3856 9.315C48.9396 8.45167 50.7033 8.02 52.6766 8.02C54.6006 8.02 56.3149 8.43933 57.8196 9.278C59.3243 10.1167 60.5083 11.3007 61.3716 12.83C62.2349 14.3593 62.6666 16.16 62.6666 18.232C62.6666 18.4293 62.6543 18.6513 62.6296 18.898C62.6296 19.1447 62.6173 19.379 62.5926 19.601H46.1276V16.53H60.1506L58.3376 17.492C58.3623 16.3573 58.1279 15.3583 57.6346 14.495C57.1413 13.6317 56.4629 12.9533 55.5996 12.46C54.7609 11.9667 53.7866 11.72 52.6766 11.72C51.5419 11.72 50.5429 11.9667 49.6796 12.46C48.8409 12.9533 48.1749 13.644 47.6816 14.532C47.2129 15.3953 46.9786 16.419 46.9786 17.603V18.343C46.9786 19.527 47.2499 20.5753 47.7926 21.488C48.3353 22.4007 49.0999 23.1037 50.0866 23.597C51.0733 24.0903 52.2079 24.337 53.4906 24.337C54.6006 24.337 55.5996 24.1643 56.4876 23.819C57.3756 23.4737 58.1649 22.931 58.8556 22.191L61.3346 25.04C60.4466 26.076 59.3243 26.8777 57.9676 27.445C56.6356 27.9877 55.1063 28.259 53.3796 28.259ZM78.7402 28V24.004L78.4812 23.153V16.16C78.4812 14.8033 78.0742 13.755 77.2602 13.015C76.4462 12.2503 75.2129 11.868 73.5602 11.868C72.4502 11.868 71.3525 12.0407 70.2672 12.386C69.2065 12.7313 68.3062 13.2123 67.5662 13.829L65.7532 10.462C66.8139 9.648 68.0719 9.04367 69.5272 8.649C71.0072 8.22967 72.5365 8.02 74.1152 8.02C76.9765 8.02 79.1842 8.71067 80.7382 10.092C82.3169 11.4487 83.1062 13.5577 83.1062 16.419V28H78.7402ZM72.5242 28.259C71.0442 28.259 69.7492 28.0123 68.6392 27.519C67.5292 27.001 66.6659 26.298 66.0492 25.41C65.4572 24.4973 65.1612 23.4737 65.1612 22.339C65.1612 21.229 65.4202 20.23 65.9382 19.342C66.4809 18.454 67.3565 17.751 68.5652 17.233C69.7739 16.715 71.3772 16.456 73.3752 16.456H79.1102V19.527H73.7082C72.1295 19.527 71.0689 19.786 70.5262 20.304C69.9835 20.7973 69.7122 21.414 69.7122 22.154C69.7122 22.9927 70.0452 23.6587 70.7112 24.152C71.3772 24.6453 72.3022 24.892 73.4862 24.892C74.6209 24.892 75.6322 24.633 76.5202 24.115C77.4329 23.597 78.0865 22.8323 78.4812 21.821L79.2582 24.596C78.8142 25.7553 78.0125 26.6557 76.8532 27.297C75.7185 27.9383 74.2755 28.259 72.5242 28.259ZM96.4788 28.259C94.3081 28.259 92.6308 27.704 91.4468 26.594C90.2628 25.4593 89.6708 23.7943 89.6708 21.599V3.876H94.2958V21.488C94.2958 22.4253 94.5301 23.153 94.9988 23.671C95.4921 24.189 96.1705 24.448 97.0338 24.448C98.0698 24.448 98.9331 24.1767 99.6238 23.634L100.919 26.927C100.376 27.371 99.7101 27.704 98.9208 27.926C98.1315 28.148 97.3175 28.259 96.4788 28.259ZM86.4148 12.09V8.39H99.5868V12.09H86.4148ZM113.36 28.259C111.165 28.259 109.241 27.8273 107.588 26.964C105.96 26.076 104.69 24.8673 103.777 23.338C102.889 21.8087 102.445 20.0697 102.445 18.121C102.445 16.1477 102.877 14.4087 103.74 12.904C104.628 11.3747 105.837 10.1783 107.366 9.315C108.92 8.45167 110.684 8.02 112.657 8.02C114.581 8.02 116.295 8.43933 117.8 9.278C119.305 10.1167 120.489 11.3007 121.352 12.83C122.215 14.3593 122.647 16.16 122.647 18.232C122.647 18.4293 122.635 18.6513 122.61 18.898C122.61 19.1447 122.598 19.379 122.573 19.601H106.108V16.53H120.131L118.318 17.492C118.343 16.3573 118.108 15.3583 117.615 14.495C117.122 13.6317 116.443 12.9533 115.58 12.46C114.741 11.9667 113.767 11.72 112.657 11.72C111.522 11.72 110.523 11.9667 109.66 12.46C108.821 12.9533 108.155 13.644 107.662 14.532C107.193 15.3953 106.959 16.419 106.959 17.603V18.343C106.959 19.527 107.23 20.5753 107.773 21.488C108.316 22.4007 109.08 23.1037 110.067 23.597C111.054 24.0903 112.188 24.337 113.471 24.337C114.581 24.337 115.58 24.1643 116.468 23.819C117.356 23.4737 118.145 22.931 118.836 22.191L121.315 25.04C120.427 26.076 119.305 26.8777 117.948 27.445C116.616 27.9877 115.087 28.259 113.36 28.259ZM135.452 28.259C133.552 28.259 131.838 27.8397 130.309 27.001C128.804 26.1377 127.62 24.9537 126.757 23.449C125.893 21.9443 125.462 20.1683 125.462 18.121C125.462 16.0737 125.893 14.2977 126.757 12.793C127.62 11.2883 128.804 10.1167 130.309 9.278C131.838 8.43933 133.552 8.02 135.452 8.02C137.104 8.02 138.584 8.39 139.892 9.13C141.199 9.84533 142.235 10.943 143 12.423C143.764 13.903 144.147 15.8023 144.147 18.121C144.147 20.415 143.777 22.3143 143.037 23.819C142.297 25.299 141.273 26.409 139.966 27.149C138.658 27.889 137.154 28.259 135.452 28.259ZM136.007 24.3C137.117 24.3 138.103 24.0533 138.967 23.56C139.855 23.0667 140.558 22.3513 141.076 21.414C141.618 20.4767 141.89 19.379 141.89 18.121C141.89 16.8383 141.618 15.7407 141.076 14.828C140.558 13.8907 139.855 13.1753 138.967 12.682C138.103 12.1887 137.117 11.942 136.007 11.942C134.897 11.942 133.898 12.1887 133.01 12.682C132.146 13.1753 131.443 13.8907 130.901 14.828C130.383 15.7407 130.124 16.8383 130.124 18.121C130.124 19.379 130.383 20.4767 130.901 21.414C131.443 22.3513 132.146 23.0667 133.01 23.56C133.898 24.0533 134.897 24.3 136.007 24.3ZM142.001 28V23.338L142.186 18.084L141.816 12.83V0.545998H146.404V28H142.001ZM173.669 28.259C171.991 28.259 170.499 27.889 169.192 27.149C167.884 26.409 166.848 25.299 166.084 23.819C165.344 22.3143 164.974 20.415 164.974 18.121C164.974 15.8023 165.356 13.903 166.121 12.423C166.91 10.943 167.958 9.84533 169.266 9.13C170.598 8.39 172.065 8.02 173.669 8.02C175.617 8.02 177.332 8.43933 178.812 9.278C180.316 10.1167 181.5 11.2883 182.364 12.793C183.252 14.2977 183.696 16.0737 183.696 18.121C183.696 20.1683 183.252 21.9443 182.364 23.449C181.5 24.9537 180.316 26.1377 178.812 27.001C177.332 27.8397 175.617 28.259 173.669 28.259ZM162.717 28V0.545998H167.342V12.83L166.972 18.084L167.12 23.338V28H162.717ZM173.151 24.3C174.261 24.3 175.247 24.0533 176.111 23.56C176.999 23.0667 177.702 22.3513 178.22 21.414C178.738 20.4767 178.997 19.379 178.997 18.121C178.997 16.8383 178.738 15.7407 178.22 14.828C177.702 13.8907 176.999 13.1753 176.111 12.682C175.247 12.1887 174.261 11.942 173.151 11.942C172.041 11.942 171.042 12.1887 170.154 12.682C169.266 13.1753 168.563 13.8907 168.045 14.828C167.527 15.7407 167.268 16.8383 167.268 18.121C167.268 19.379 167.527 20.4767 168.045 21.414C168.563 22.3513 169.266 23.0667 170.154 23.56C171.042 24.0533 172.041 24.3 173.151 24.3ZM189.168 35.437C188.206 35.437 187.244 35.2767 186.282 34.956C185.32 34.6353 184.518 34.1913 183.877 33.624L185.727 30.22C186.196 30.6393 186.726 30.9723 187.318 31.219C187.91 31.4657 188.514 31.589 189.131 31.589C189.97 31.589 190.648 31.3793 191.166 30.96C191.684 30.5407 192.165 29.8377 192.609 28.851L193.756 26.261L194.126 25.706L201.6 8.242H206.04L196.79 29.591C196.173 31.071 195.483 32.2427 194.718 33.106C193.978 33.9693 193.139 34.5737 192.202 34.919C191.289 35.2643 190.278 35.437 189.168 35.437ZM193.238 28.703L184.321 8.242H189.131L196.383 25.299L193.238 28.703ZM231.699 28.37C229.676 28.37 227.814 28.0493 226.112 27.408C224.435 26.742 222.967 25.817 221.709 24.633C220.451 23.4243 219.477 22.006 218.786 20.378C218.095 18.75 217.75 16.974 217.75 15.05C217.75 13.126 218.095 11.35 218.786 9.722C219.477 8.094 220.451 6.688 221.709 5.504C222.992 4.29533 224.484 3.37033 226.186 2.729C227.888 2.063 229.75 1.73 231.773 1.73C233.968 1.73 235.942 2.08767 237.693 2.803C239.469 3.51833 240.961 4.56667 242.17 5.948L239.136 8.908C238.125 7.89667 237.027 7.15667 235.843 6.688C234.684 6.19467 233.401 5.948 231.995 5.948C230.638 5.948 229.38 6.17 228.221 6.614C227.062 7.058 226.063 7.687 225.224 8.501C224.385 9.315 223.732 10.277 223.263 11.387C222.819 12.497 222.597 13.718 222.597 15.05C222.597 16.3573 222.819 17.566 223.263 18.676C223.732 19.786 224.385 20.7603 225.224 21.599C226.063 22.413 227.049 23.042 228.184 23.486C229.319 23.93 230.577 24.152 231.958 24.152C233.241 24.152 234.474 23.9547 235.658 23.56C236.867 23.1407 238.014 22.45 239.099 21.488L241.837 25.077C240.48 26.1623 238.902 26.9887 237.101 27.556C235.325 28.0987 233.524 28.37 231.699 28.37ZM237.286 24.448V14.754H241.837V25.077L237.286 24.448ZM249.578 28.259C248.74 28.259 248.024 27.9753 247.432 27.408C246.84 26.816 246.544 26.076 246.544 25.188C246.544 24.2507 246.84 23.5107 247.432 22.968C248.024 22.4007 248.74 22.117 249.578 22.117C250.417 22.117 251.132 22.4007 251.724 22.968C252.316 23.5107 252.612 24.2507 252.612 25.188C252.612 26.076 252.316 26.816 251.724 27.408C251.132 27.9753 250.417 28.259 249.578 28.259ZM257.576 28V2.1H268.898C271.71 2.1 274.176 2.64267 276.298 3.728C278.419 4.81333 280.072 6.318 281.256 8.242C282.44 10.166 283.032 12.4353 283.032 15.05C283.032 17.64 282.44 19.9093 281.256 21.858C280.072 23.782 278.419 25.2867 276.298 26.372C274.176 27.4573 271.71 28 268.898 28H257.576ZM262.386 23.93H268.676C270.624 23.93 272.302 23.56 273.708 22.82C275.138 22.08 276.236 21.044 277.001 19.712C277.79 18.38 278.185 16.826 278.185 15.05C278.185 13.2493 277.79 11.6953 277.001 10.388C276.236 9.056 275.138 8.02 273.708 7.28C272.302 6.54 270.624 6.17 268.676 6.17H262.386V23.93ZM288.457 28.259C287.619 28.259 286.903 27.9753 286.311 27.408C285.719 26.816 285.423 26.076 285.423 25.188C285.423 24.2507 285.719 23.5107 286.311 22.968C286.903 22.4007 287.619 22.117 288.457 22.117C289.296 22.117 290.011 22.4007 290.603 22.968C291.195 23.5107 291.491 24.2507 291.491 25.188C291.491 26.076 291.195 26.816 290.603 27.408C290.011 27.9753 289.296 28.259 288.457 28.259Z" fill="#232323"/>
</svg>
